<mxfile host="app.diagrams.net" modified="2024-05-25T14:13:30.648Z" agent="Mozilla/5.0 (Windows NT 10.0; Win64; x64) AppleWebKit/537.36 (KHTML, like Gecko) Chrome/125.0.0.0 Safari/537.36" etag="modAjJ8QhbgyCNgZJi5i" version="24.0.4" type="github">
  <diagram name="第 1 页" id="om_xFL3FP0TUHQnUX7Rq">
    <mxGraphModel dx="1562" dy="845" grid="1" gridSize="10" guides="1" tooltips="1" connect="1" arrows="1" fold="1" page="1" pageScale="1" pageWidth="827" pageHeight="1169" math="0" shadow="0">
      <root>
        <mxCell id="0" />
        <mxCell id="1" parent="0" />
        <mxCell id="UGk2gtRBXGAaHG7fekyU-1" value="某数据分析系统" style="swimlane;" vertex="1" parent="1">
          <mxGeometry x="180" y="330" width="130" height="50" as="geometry" />
        </mxCell>
        <mxCell id="UGk2gtRBXGAaHG7fekyU-5" style="edgeStyle=orthogonalEdgeStyle;rounded=0;orthogonalLoop=1;jettySize=auto;html=1;entryX=1;entryY=0.5;entryDx=0;entryDy=0;dashed=1;dashPattern=8 8;" edge="1" parent="1" source="UGk2gtRBXGAaHG7fekyU-3" target="UGk2gtRBXGAaHG7fekyU-1">
          <mxGeometry relative="1" as="geometry" />
        </mxCell>
        <mxCell id="UGk2gtRBXGAaHG7fekyU-3" value="数据开放管理子系统" style="swimlane;" vertex="1" parent="1">
          <mxGeometry x="390" y="330" width="160" height="50" as="geometry" />
        </mxCell>
      </root>
    </mxGraphModel>
  </diagram>
</mxfile>
